# xmcd
#
# Track frame offsets: 
#        151
#        16632
#        32833
#        51480
#        67501
#        83842
#        101671
#        119346
#        141593
#        160108
#        175339
#        190694
#        205735
#        222428
#
# Disc length: 3188 seconds
#
# Revision: 0
# Processed by: cddbd v1.5.1PL2 Copyright (c) Steve Scherf et al.
# Submitted via: ExactAudioCopy v0.95b4
#
DISCID=be0c720e
DTITLE=ไวพจน์  เพชรสุพรรณ - ตลับทอง 2544
DYEAR=2001
DGENRE=Country
TTITLE0=มันมากับความเมา
TTITLE1=สาวชำน้อย
TTITLE2=ซิ่งสะเด็ด
TTITLE3=ผู้จัดการห้องน้ำ
TTITLE4=ขอเบิ่งหัวใจ
TTITLE5=สุ่งส่าง
TTITLE6=ขาดปั๊ด
TTITLE7=โบรักสีดำ
TTITLE8=แห่นางแมว
TTITLE9=เสือขี้เมา
TTITLE10=สิงห์ยาดอง
TTITLE11=สาวท่าแร่
TTITLE12=หลบซอง
TTITLE13=หนุ่ม H.I.V.
EXTD=
EXTT0=
EXTT1=
EXTT2=
EXTT3=
EXTT4=
EXTT5=
EXTT6=
EXTT7=
EXTT8=
EXTT9=
EXTT10=
EXTT11=
EXTT12=
EXTT13=
PLAYORDER=
